<svg width="97" height="97" viewBox="0 0 97 97" fill="none" xmlns="http://www.w3.org/2000/svg">
<circle cx="48.5" cy="48.5" r="48.5" fill="white"/>
<path d="M35.293 79H21.6992C20.7608 79 20 78.2392 20 77.3008V36.2933C20 27.8606 26.8606 21 35.2933 21H76.3008C77.2392 21 78 21.7608 78 22.6992V36.293C78 37.2314 77.2392 37.9922 76.3008 37.9922H36.9922V77.3008C36.9922 78.2392 36.2314 79 35.293 79Z" fill="url(#paint0_linear_333_40)"/>
<path d="M61.0217 69.2606L61.0161 72.6552L73.9019 65.6572L61.0394 58.6168L61.0337 62.0113C61.0333 62.2153 60.8678 62.3805 60.6639 62.3805C60.6638 62.3805 60.6636 62.3805 60.6634 62.3805L43.3582 62.3517L43.3474 68.8616L60.6527 68.8904C60.8569 68.8906 61.022 69.0565 61.0217 69.2606Z" fill="black"/>
<path d="M82.6525 57.1061L72.3988 51.4934L72.3941 54.3365C72.3939 54.4044 72.3388 54.4595 72.2707 54.4595L57.7896 54.4379L66.0893 59.6651L66.1491 59.7029L72.2622 59.7181C72.3301 59.7183 72.3853 59.7736 72.3851 59.8415L72.3802 62.6845L82.6525 57.1061Z" fill="black"/>
<path d="M62.9565 49.8449L54.7355 45.3448L54.7318 47.6051C54.7318 47.638 54.719 47.6687 54.6956 47.6919C54.6724 47.7151 54.6415 47.7279 54.6084 47.7279L43.8751 47.7101L43.8682 51.9164L54.6017 51.9342C54.6346 51.9342 54.6653 51.9471 54.6885 51.9703C54.7119 51.9937 54.7246 52.0249 54.7246 52.0578L54.7207 54.3177L62.9565 49.8449Z" fill="black"/>
<defs>
<linearGradient id="paint0_linear_333_40" x1="49" y1="21" x2="49" y2="79" gradientUnits="userSpaceOnUse">
<stop stop-color="#FF00A8"/>
<stop offset="1" stop-color="#990049"/>
</linearGradient>
</defs>
</svg>
