<svg width="97" height="97" viewBox="0 0 97 97" fill="none" xmlns="http://www.w3.org/2000/svg">
<circle cx="48.5" cy="48.5" r="48.5" fill="white"/>
<g clip-path="url(#clip0_36_65)">
<rect x="22" y="58" width="27" height="17" fill="#FF007A"/>
<path d="M63.5587 19H49.6374L42.6513 40.159H47.2185C48.9278 40.159 50.4443 40.9873 51.3988 42.2595L51.6345 41.3706L56.0357 28.3082L57.4677 28.3003L62.0802 42.2669H51.4061C52.0575 43.1399 52.4493 44.2186 52.4493 45.3886V51.4643H64.0313L66.0768 59.2419H76.7998L63.5587 19Z" fill="black"/>
<path d="M50.5582 71.1796C50.0145 69.3607 49.6472 63.5905 49.6472 59.0784C49.6472 58.5262 49.5033 58.0071 49.2523 57.5565C49.5033 56.9969 49.646 56.3798 49.646 55.729V47.4671C49.646 44.9937 47.6342 42.9819 45.1608 42.9819H40.9206C40.882 42.4719 40.8551 41.9632 40.8392 41.4673C40.8214 41.021 40.8153 40.6065 40.8134 40.1982C40.8073 39.7678 40.8147 39.4164 40.833 39.1109C40.8698 38.4503 40.9481 37.8105 41.0645 37.2393C41.19 36.6271 41.3289 36.2297 41.3822 36.0865C41.3914 36.0614 41.4006 36.0375 41.4091 36.0124C41.4434 35.9138 41.4728 35.8404 41.4924 35.7975C43.2287 32.4836 41.9632 28.3694 38.6554 26.6062C37.6776 26.0858 36.5775 25.8103 35.4749 25.8061C34.371 25.8103 33.2715 26.0858 32.295 26.6062C28.9878 28.3694 27.7211 32.4836 29.4574 35.7975C29.4763 35.8398 29.5069 35.9132 29.5412 36.0124C29.5498 36.0375 29.5584 36.0614 29.5682 36.0865C29.6214 36.2291 29.7592 36.6271 29.8853 37.2393C30.0016 37.8105 30.0812 38.4503 30.1167 39.1109C30.1357 39.4164 30.1424 39.7678 30.1369 40.1982C30.1345 40.6065 30.129 41.021 30.1112 41.4673C30.0953 41.9632 30.0684 42.4719 30.0298 42.9819H25.7895C23.3162 42.9819 21.3044 44.9937 21.3044 47.4671V55.729C21.3044 56.3798 21.4458 56.9969 21.6975 57.5565C21.4471 58.0071 21.3032 58.5262 21.3032 59.0784C21.3032 63.5893 20.9346 69.3607 20.3922 71.1796C19.2773 72.0979 19.0649 73.3952 19.2731 74.3577C19.8467 76.9994 22.6152 76.9994 23.5249 76.9994C25.6395 76.9994 29.4518 76.6284 29.6122 76.6125C29.8584 76.5874 30.0965 76.5347 30.3218 76.4582C30.5636 76.5188 30.8146 76.5506 31.0699 76.5512L35.4749 76.5727L39.8804 76.5512C40.1357 76.5506 40.3867 76.5176 40.6279 76.4582C40.8532 76.5347 41.0914 76.5874 41.3375 76.6125C41.4985 76.6272 45.3114 76.9994 47.4254 76.9994C48.3346 76.9994 51.1049 76.9994 51.6767 74.3577C51.8855 73.3959 51.673 72.0979 50.5582 71.1796ZM41.6975 73.6089L40.0151 66.2696L39.1733 73.5373L31.0308 73.5336L29.2516 69.2542V73.6089C29.2516 73.6089 20.7099 74.4464 22.5527 73.6089C24.3949 72.772 24.3949 59.2052 24.3949 59.2052H35.4749H46.5555C46.5555 59.2052 46.5555 72.772 48.3976 73.6089C50.2392 74.4464 41.6975 73.6089 41.6975 73.6089Z" fill="black"/>
</g>
<defs>
<clipPath id="clip0_36_65">
<rect width="58" height="58" fill="white" transform="translate(19 19)"/>
</clipPath>
</defs>
</svg>
