<svg width="97" height="97" viewBox="0 0 97 97" fill="none" xmlns="http://www.w3.org/2000/svg">
<circle cx="48.5" cy="48.5" r="48.5" fill="white"/>
<g clip-path="url(#clip0_36_66)">
<path d="M42.2182 52.4259C42.8363 51.8072 42.866 50.7333 42.2182 50.0133C41.5491 49.4111 40.5411 49.3513 39.8056 50.0133C39.1259 50.693 39.1259 51.7802 39.8056 52.4259C40.4512 53.0715 41.5725 53.0715 42.2182 52.4259Z" fill="black"/>
<path d="M27.7779 69.2446C33.4858 74.9533 40.1455 77.9884 45.6162 77.9884C48.538 77.9884 51.1205 77.2406 53.0232 75.3719L56.6248 71.6571C56.4889 70.9097 56.3867 70.1623 56.3867 69.3808V59.5612C49.3535 51.5426 48.3004 52.5281 41.7766 43.5576C41.7766 43.6939 36.8838 35.9807 37.5635 28.2342L26.0451 39.7521C26.3168 42.0629 27.3023 44.2033 28.8652 45.9361C30.7679 48.0429 33.4181 49.3341 36.2382 49.5036C36.4422 48.8243 36.8497 48.1787 37.3931 47.6349C39.3981 45.6303 42.6262 45.6303 44.5966 47.6349C46.6012 49.6058 46.6012 52.8339 44.5966 54.8384C42.6925 56.7425 39.5481 56.9186 37.3931 54.8384C36.8497 54.2609 36.4422 53.6149 36.2382 52.9016C32.4667 52.6976 28.8988 51.0329 26.3504 48.2128C24.8556 46.5817 23.8025 44.679 23.1905 42.6063L21.7979 44.0333C16.395 49.4018 19.0456 60.4785 27.7779 69.2446Z" fill="black"/>
<path d="M71.9031 40.4999H43.951C45.344 42.9461 47.1791 45.3927 49.4558 47.669C49.7275 47.9411 56.5907 54.6003 58.9692 57.3868C59.513 57.9983 59.7847 58.7798 59.7847 59.5612V69.3808C59.7847 74.0696 63.8168 77.9884 68.5056 77.9884C73.1943 77.9884 76.9999 74.0696 76.9999 69.3808V45.5967C76.9999 42.7762 74.7232 40.4999 71.9031 40.4999ZM70.2043 71.0796H66.8068V57.4886H70.2043V71.0796Z" fill="#FF007A"/>
<path d="M42.3363 37.102H71.9031C73.0841 37.102 74.2081 37.3467 75.2307 37.7839C71.5947 28.9979 62.5915 22.4515 54.8238 20.5532C50.8284 19.5969 46.7176 19.6549 43.8152 22.5577C40.4552 25.9177 40.0211 31.237 42.3363 37.102Z" fill="black"/>
<path d="M26.0451 37.3059C26.5544 32.2433 30.6998 27.9961 36.17 26.9766L37.8011 26.6708C38.0387 25.4137 38.4467 24.1565 39.0582 22.9675L35.5244 23.6467C28.593 24.938 23.2927 30.4423 22.6812 36.9661C22.5675 38.6715 22.5807 40.653 23.1905 42.6063L26.0451 39.7521C25.9769 38.9366 25.9769 38.1215 26.0451 37.3059Z" fill="black"/>
</g>
<defs>
<clipPath id="clip0_36_66">
<rect width="58" height="58" fill="white" transform="translate(19 20)"/>
</clipPath>
</defs>
</svg>
