<svg width="141" height="141" viewBox="0 0 141 141" fill="none" xmlns="http://www.w3.org/2000/svg">
<rect width="141" height="141" rx="20" fill="#464646"/>
<path d="M80.1641 68.4366C82.7668 68.9912 84.8574 70.2926 86.4361 72.3406C88.0148 74.3459 88.8041 76.6499 88.8041 79.2526C88.8041 83.0072 87.4814 85.9939 84.8361 88.2126C82.2334 90.3886 78.5854 91.4766 73.8921 91.4766H52.9641V46.5486H73.1881C77.7534 46.5486 81.3161 47.5939 83.8761 49.6846C86.4788 51.7752 87.7801 54.6126 87.7801 58.1966C87.7801 60.8419 87.0761 63.0392 85.6681 64.7886C84.3028 66.5379 82.4681 67.7539 80.1641 68.4366ZM63.9081 64.7246H71.0761C72.8681 64.7246 74.2334 64.3406 75.1721 63.5726C76.1534 62.7619 76.6441 61.5886 76.6441 60.0526C76.6441 58.5166 76.1534 57.3432 75.1721 56.5326C74.2334 55.7219 72.8681 55.3166 71.0761 55.3166H63.9081V64.7246ZM71.9721 82.6446C73.8068 82.6446 75.2148 82.2392 76.1961 81.4286C77.2201 80.5752 77.7321 79.3592 77.7321 77.7806C77.7321 76.2019 77.1988 74.9646 76.1321 74.0686C75.1081 73.1726 73.6788 72.7246 71.8441 72.7246H63.9081V82.6446H71.9721Z" fill="white"/>
</svg>
