<svg width="97" height="97" viewBox="0 0 97 97" fill="none" xmlns="http://www.w3.org/2000/svg">
<circle cx="48.5" cy="48.5" r="48.5" fill="white"/>
<g clip-path="url(#clip0_36_68)">
<path d="M68.7684 54.5758V65.3323C68.7684 66.0142 68.2153 66.5672 67.5334 66.5672H42.5343V76.7627C42.5343 77.8629 41.2041 78.4139 40.4261 77.6359L23.6175 60.8273C23.1349 60.3447 23.1349 59.5634 23.6175 59.0808L40.4265 42.2722C41.2045 41.4942 42.5347 42.0452 42.5347 43.1454V53.3409H67.5334C68.2153 53.3409 68.7684 53.8943 68.7684 54.5758Z" fill="#FF6672"/>
<path d="M68.7684 54.5758V65.3323C68.7684 66.0142 68.2153 66.5672 67.5334 66.5672H64.8777C65.5591 66.5672 66.1126 66.0142 66.1126 65.3323V54.5758C66.1126 53.8939 65.5591 53.3409 64.8777 53.3409H67.5334C68.2153 53.3409 68.7684 53.8943 68.7684 54.5758Z" fill="#F92F41"/>
<path d="M64.5067 53.3409L57.9456 59.902C57.3967 60.4496 56.6729 60.7522 55.9071 60.7522C54.3058 60.7522 53.0033 59.453 53.0033 57.8547V53.3409H64.5067Z" fill="#F92F41"/>
<path d="M73.5801 41.9193L56.7715 58.7279C55.9935 59.5059 54.6633 58.9549 54.6633 57.8547V47.6593H29.6642C28.9827 47.6593 28.4293 47.1062 28.4293 46.4243V35.6678C28.4293 34.986 28.9827 34.4329 29.6642 34.4329H54.6633V24.2375C54.6633 23.1372 55.9935 22.5863 56.7715 23.3642L73.5801 40.1729C74.0627 40.6554 74.0627 41.4367 73.5801 41.9193Z" fill="#65BAFC"/>
<path d="M73.5801 41.9193L56.7715 58.7279C55.9935 59.5059 54.6633 58.9549 54.6633 57.8547V57.1476L70.7649 41.0461L54.6633 24.9445V24.2375C54.6633 23.1372 55.9935 22.5863 56.7715 23.3642L73.5801 40.1729C74.0627 40.6554 74.0627 41.4367 73.5801 41.9193Z" fill="#0097FA"/>
<path d="M44.1943 43.1454V47.6592H32.6922L39.2533 41.0981C39.8009 40.5501 40.5248 40.248 41.2906 40.248C42.8918 40.248 44.1943 41.5475 44.1943 43.1454Z" fill="#0097FA"/>
<path d="M42.5343 49.2827V43.1454C42.5343 42.0452 41.2041 41.4942 40.4261 42.2722L33.416 49.2827H42.5343Z" fill="#FF6672"/>
</g>
<defs>
<clipPath id="clip0_36_68">
<rect width="55" height="55" fill="white" transform="translate(21 23)"/>
</clipPath>
</defs>
</svg>
