<svg width="97" height="97" viewBox="0 0 97 97" fill="none" xmlns="http://www.w3.org/2000/svg">
<circle cx="48.5" cy="48.5" r="48.5" fill="white"/>
<g clip-path="url(#clip0_10_29)">
<path d="M34.7831 32.3803L29.9775 27.5747C29.3138 26.911 28.2384 26.911 27.5747 27.5747C26.911 28.2384 26.911 29.3138 27.5747 29.9775L32.3803 34.7831C33.0441 35.4469 34.1194 35.4469 34.7831 34.7831C35.4469 34.1194 35.4469 33.0441 34.7831 32.3803Z" fill="#FF007A"/>
<path d="M27.6096 46.301H20.6995C19.7602 46.301 19.0002 47.061 19.0002 48.0002C19.0002 48.9395 19.7602 49.6995 20.6995 49.6995H27.6096C28.5488 49.6995 29.3088 48.9395 29.3088 48.0002C29.3088 47.061 28.5488 46.301 27.6096 46.301Z" fill="#FF007A"/>
<path d="M75.301 46.301H68.3909C67.4517 46.301 66.6917 47.061 66.6917 48.0002C66.6917 48.9395 67.4517 49.6995 68.3909 49.6995H75.301C76.2402 49.6995 77.0002 48.9395 77.0002 48.0002C77.0002 47.061 76.2402 46.301 75.301 46.301Z" fill="#FF007A"/>
<path d="M68.4258 27.5747C67.762 26.911 66.6867 26.911 66.0229 27.5747L61.2173 32.3803C60.5536 33.0441 60.5536 34.1194 61.2173 34.7831C61.881 35.4469 62.9564 35.4469 63.6201 34.7831L68.4258 29.9775C69.0895 29.3138 69.0895 28.2385 68.4258 27.5747Z" fill="#FF007A"/>
<path d="M48.0002 19.0002C47.061 19.0002 46.301 19.7602 46.301 20.6995V27.6096C46.301 28.5488 47.061 29.3088 48.0002 29.3088C48.9395 29.3088 49.6995 28.5488 49.6995 27.6096V20.6995C49.6995 19.7602 48.9395 19.0002 48.0002 19.0002Z" fill="#FF007A"/>
<path d="M57.5159 36.0036C53.8117 33.081 49.0198 32.0276 44.3299 33.1491C38.8924 34.4065 34.5086 38.7224 33.183 44.126C31.8577 49.5634 33.387 55.0689 37.295 58.9091C38.6885 60.3026 39.5041 62.4888 39.5041 64.7319V65.1057C39.5041 66.0572 40.2517 66.8049 41.2034 66.8049H54.7971C55.7488 66.8049 56.4963 66.0572 56.4963 65.1057V64.7319C56.4963 62.5228 57.3459 60.2685 58.8413 58.8072C61.6961 55.9185 63.2932 52.0784 63.2932 48.0002C63.2932 43.3104 61.1862 38.9263 57.5159 36.0036ZM48.0002 42.9026C45.4367 42.9026 43.5705 44.603 43.0818 46.5715C42.8594 47.4668 41.9586 48.0382 41.0224 47.8128C40.1131 47.5871 39.5572 46.6644 39.7829 45.7551C40.6248 42.3567 43.8169 39.5041 48.0002 39.5041C48.9394 39.5041 49.6995 40.2642 49.6995 41.2034C49.6995 42.1426 48.9394 42.9026 48.0002 42.9026Z" fill="#FF007A"/>
<path d="M41.2034 70.2034V71.9026C41.2034 74.7135 43.4901 77.0002 46.301 77.0002H49.6995C52.5104 77.0002 54.7971 74.7135 54.7971 71.9026V70.2034H41.2034Z" fill="black"/>
</g>
<defs>
<clipPath id="clip0_10_29">
<rect width="58" height="58" fill="white" transform="translate(19.0002 19.0002)"/>
</clipPath>
</defs>
</svg>
