<svg width="80" height="80" viewBox="0 0 80 80" fill="none" xmlns="http://www.w3.org/2000/svg">
<circle cx="40" cy="40" r="40" fill="white"/>
<g clip-path="url(#clip0_435_117303)">
<path d="M64.3299 26.4038V24.8369H57.5923V26.4038H60.1776V52.7718H57.5923V54.3387H64.3299V52.7718H61.7446V26.4038H64.3299Z" fill="#FF007A"/>
<path d="M16.7853 47.961L24.6711 30.1532C25.2208 28.9252 26.2224 28.1816 27.5802 28.1816H27.871C29.228 28.1816 30.1979 28.9251 30.7471 30.1532L38.6331 47.961C38.7947 48.3166 38.8919 48.6396 38.8919 48.963C38.8919 50.288 37.8575 51.3545 36.5324 51.3545C35.369 51.3545 34.5932 50.6759 34.1408 49.6415L32.622 46.0866H22.6677L21.084 49.8033C20.6638 50.7728 19.8237 51.3545 18.7894 51.3545C17.4962 51.3545 16.4946 50.3204 16.4946 49.0275C16.4946 48.672 16.6237 48.3166 16.7853 47.961ZM30.7797 41.6912L27.6446 34.2255L24.5097 41.6912H30.7797Z" fill="#1E252B"/>
<path d="M41.25 46.1834V46.1187C41.25 42.3374 44.1265 40.5921 48.2309 40.5921C49.9763 40.5921 51.237 40.883 52.4651 41.3032V41.0124C52.4651 38.9761 51.2045 37.8452 48.7482 37.8452C47.3909 37.8452 46.292 38.039 45.3547 38.33C45.064 38.4269 44.8699 38.4591 44.6434 38.4591C43.5126 38.4591 42.6077 37.5865 42.6077 36.4555C42.6077 35.5828 43.1569 34.8395 43.9324 34.5485C45.4837 33.9668 47.1646 33.6436 49.4592 33.6436C52.1414 33.6436 54.0808 34.3545 55.3091 35.5826C56.6017 36.8753 57.1834 38.7823 57.1834 41.1093V48.995C57.1834 50.3203 56.1169 51.3543 54.7918 51.3543C53.3697 51.3543 52.4326 50.3525 52.4326 49.3182V49.2859C51.2368 50.6109 49.5882 51.4834 47.1969 51.4834C43.9324 51.4837 41.25 49.6095 41.25 46.1834ZM52.5293 45.0521V44.1796C51.6891 43.7918 50.5903 43.5332 49.3945 43.5332C47.2935 43.5332 46.001 44.3735 46.001 45.9247V45.9894C46.001 47.3146 47.0999 48.0901 48.6834 48.0901C50.978 48.0902 52.5293 46.8299 52.5293 45.0521Z" fill="#FF007A"/>
</g>
<defs>
<clipPath id="clip0_435_117303">
<rect width="47.8351" height="47.8351" fill="white" transform="translate(16.4946 15.6699)"/>
</clipPath>
</defs>
</svg>
