<svg xmlns="http://www.w3.org/2000/svg" width="48" height="48" fill="none"><path fill="#161616" fill-rule="evenodd" d="M24.356 8.361a.75.75 0 0 0-.678 1.07.75.75 0 0 0-.072.319v29.5c0 .414.336.75.75.75h5.584a.75.75 0 0 0 0-1.5h-4.834v-14h4.834a.75.75 0 0 0 0-1.5h-4.834V9.861h4.834a.75.75 0 0 0 0-1.5zM19.197 16.127l.565.53a2 2 0 0 1 .631 1.46v.182a.4.4 0 0 1 0 .069V31a2 2 0 0 1-2 2H8a2 2 0 0 1-2-2V17a2 2 0 0 1 2-2h9.203a2 2 0 0 1 1.369.541l.621.583.003.001zm-.303 2.623H16.84c-.245 0-.444-.186-.444-.417V16.5H8a.5.5 0 0 0-.5.5v14a.5.5 0 0 0 .5.5h10.394a.5.5 0 0 0 .5-.5zM34.5 13.5v-7h3.6v1.078c0 .123.1.222.222.222H39.5v5.7zM33 6a1 1 0 0 1 1-1h6a1 1 0 0 1 1 1v8a1 1 0 0 1-1 1h-6a1 1 0 0 1-1-1zM34.5 27.5v-7h3.6v1.078c0 .123.1.222.222.222H39.5v5.7zM33 20a1 1 0 0 1 1-1h6a1 1 0 0 1 1 1v8a1 1 0 0 1-1 1h-6a1 1 0 0 1-1-1zM34.5 41.5v-7h3.6v1.078c0 .123.1.222.222.222H39.5v5.7zM33 34a1 1 0 0 1 1-1h6a1 1 0 0 1 1 1v8a1 1 0 0 1-1 1h-6a1 1 0 0 1-1-1z" clip-rule="evenodd"></path></svg>