<svg xmlns="http://www.w3.org/2000/svg" width="48" height="48" fill="none"><path fill="#161616" fill-rule="evenodd" d="M47.25 7.999a.75.75 0 0 1 .681 1.064.75.75 0 0 1 .069.314v1.067a.75.75 0 0 1-1.5 0V9.5h-.566a.75.75 0 0 1 0-1.5zm-3.948 0a.75.75 0 0 1 0 1.5h-1.316a.75.75 0 0 1 0-1.5zM0 8.799a.7.7 0 0 1 .7-.7h1.34a.7.7 0 1 1 0 1.4H1.4v.899a.7.7 0 1 1-1.4 0v-1.07q0-.141.052-.265A.7.7 0 0 1 0 8.8m4.023 0a.7.7 0 0 1 .7-.7h1.34a.7.7 0 1 1 0 1.4h-1.34a.7.7 0 0 1-.7-.7M.7 11.839a.7.7 0 0 1 .7.7v2.14a.7.7 0 1 1-1.4 0v-2.14a.7.7 0 0 1 .7-.7m0 4.281a.7.7 0 0 1 .7.7v2.141a.7.7 0 1 1-1.4 0v-2.14a.7.7 0 0 1 .7-.7m0 4.282a.7.7 0 0 1 .7.7v2.141a.7.7 0 1 1-1.4 0v-2.14a.7.7 0 0 1 .7-.7m0 4.282a.7.7 0 0 1 .7.7v2.141a.7.7 0 1 1-1.4 0v-2.14a.7.7 0 0 1 .7-.7m0 4.282a.7.7 0 0 1 .7.7v2.14a.7.7 0 1 1-1.4 0v-2.14a.7.7 0 0 1 .7-.7m0 4.282a.7.7 0 0 1 .7.7v2.14a.7.7 0 1 1-1.4 0v-2.14a.7.7 0 0 1 .7-.7m0 4.282a.7.7 0 0 1 .7.7v.37h.64a.7.7 0 1 1 0 1.4H.7a.7.7 0 0 1-.7-.7v-1.07a.7.7 0 0 1 .7-.7m4.023 1.07a.7.7 0 0 0 0 1.4h1.34a.7.7 0 1 0 0-1.4zM47.25 11.828a.75.75 0 0 0-.75.75v2.134a.75.75 0 0 0 1.5 0v-2.134a.75.75 0 0 0-.75-.75m0 4.268a.75.75 0 0 0-.75.75v2.133a.75.75 0 1 0 1.5 0v-2.133a.75.75 0 0 0-.75-.75m0 4.267a.75.75 0 0 0-.75.75v2.134a.75.75 0 0 0 1.5 0v-2.134a.75.75 0 0 0-.75-.75m0 4.268a.75.75 0 0 0-.75.75v2.133a.75.75 0 0 0 1.5 0v-2.133a.75.75 0 0 0-.75-.75m0 4.267a.75.75 0 0 0-.75.75v2.134a.75.75 0 0 0 1.5 0v-2.134a.75.75 0 0 0-.75-.75m0 4.268a.75.75 0 0 0-.75.75v2.133a.75.75 0 0 0 1.5 0v-2.133a.75.75 0 0 0-.75-.75m0 4.267a.75.75 0 0 0-.75.75v.317h-.566a.75.75 0 0 0 0 1.5h1.316a.75.75 0 0 0 .75-.75v-1.067a.75.75 0 0 0-.75-.75m-3.198 1.817a.75.75 0 0 0-.75-.75h-1.316a.75.75 0 0 0 0 1.5h1.316a.75.75 0 0 0 .75-.75M21.863 23.18a.75.75 0 0 0 0 1.5h3.5a.75.75 0 1 0 0-1.5zm19.848-7.674.542.514a2 2 0 0 1 .622 1.45v.175a.4.4 0 0 1 0 .067v12.41a2 2 0 0 1-2 2h-9.998a2 2 0 0 1-2-2V16.395a2 2 0 0 1 2-2h8.867a2 2 0 0 1 1.377.55l.587.557.002.001zm-.336 2.582H39.42a.42.42 0 0 1-.432-.41v-1.783h-8.111a.5.5 0 0 0-.5.5v13.727a.5.5 0 0 0 .5.5h9.998a.5.5 0 0 0 .5-.5zm-23-2.068-.54-.514-.002-.003h-.002l-.587-.558a2 2 0 0 0-1.377-.55H7a2 2 0 0 0-2 2v13.727a2 2 0 0 0 2 2h9.999a2 2 0 0 0 2-2v-12.41a.4.4 0 0 0 0-.067v-.175a2 2 0 0 0-.623-1.45m-2.831 2.068h1.955v12.034a.5.5 0 0 1-.5.5H7a.5.5 0 0 1-.5-.5V16.395a.5.5 0 0 1 .5-.5h8.111v1.783c0 .227.194.41.433.41" clip-rule="evenodd"></path></svg>