<svg xmlns="http://www.w3.org/2000/svg" width="18" height="18" viewBox="0 0 18 18"><path fill="#FFF" d="M5.3475,0.7035 L0.096,4.125 L3.708,7.03725 L9.018,3.765 L5.3475,0.7035 Z M17.904,4.14 L12.66525,0.7275 L9.01875,3.7725 L14.29875,7.03875 L17.904,4.14 Z M9.01875,10.305 L12.66525,13.35975 L17.904,9.945 L14.2995,7.0395 L9.01875,10.305 Z M0.096,9.9585 L5.3475,13.35975 L9.01875,10.305 L3.70875,7.0455 L0.096,9.9585 Z M9.01875,10.9635 L5.35575,14.0385 L3.786,13.02 L3.786,14.16 L9.01875,17.30475 L14.271,14.15175 L14.271,13.0125 L12.693,14.031 L9.01875,10.9635 Z"></path></svg>